HIERARCHY
ROOT Hips
{
	OFFSET 0.000000 71.427986 0.000000
	CHANNELS 6 Xposition Yposition Zposition Xrotation Yrotation Zrotation
	JOINT Pelvis
	{
		OFFSET 0.000000 0.000000 0.000000
		CHANNELS 3 Xrotation Yrotation Zrotation
		JOINT LeftUpLeg
		{
			OFFSET 6.797100 -2.508499 -1.318700
			CHANNELS 3 Xrotation Yrotation Zrotation
			JOINT LeftLeg
			{
				OFFSET 0.069008 -29.241863 0.690200
				CHANNELS 3 Xrotation Yrotation Zrotation
				JOINT LeftFoot
				{
					OFFSET -0.069008 -29.568123 -0.266800
					CHANNELS 3 Xrotation Yrotation Zrotation
					JOINT LeftToeBase
					{
						OFFSET 3.145500 -8.631000 16.059900
						CHANNELS 3 Xrotation Yrotation Zrotation
						End Site
						{
							OFFSET 0.000000 18.501587 0.000000
						}
					}
				}
			}
			JOINT Left_ShortSleeve
			{
				OFFSET 0.265923 -10.480953 1.153800
				CHANNELS 3 Xrotation Yrotation Zrotation
				End Site
				{
					OFFSET 1.725763 19.823879 0.000000
				}
			}
		}
		JOINT RightUpLeg
		{
			OFFSET -6.797100 -2.508499 -1.318700
			CHANNELS 3 Xrotation Yrotation Zrotation
			JOINT RightLeg
			{
				OFFSET -0.082453 -29.241932 0.688000
				CHANNELS 3 Xrotation Yrotation Zrotation
				JOINT RightFoot
				{
					OFFSET 0.082453 -29.568058 -0.264600
					CHANNELS 3 Xrotation Yrotation Zrotation
					JOINT RightToeBase
					{
						OFFSET -3.115300 -8.682800 16.113400
						CHANNELS 3 Xrotation Yrotation Zrotation
						End Site
						{
							OFFSET 0.000000 18.567114 0.000000
						}
					}
				}
			}
			JOINT Right_ShortSleeve
			{
				OFFSET -0.265923 -10.480953 1.153800
				CHANNELS 3 Xrotation Yrotation Zrotation
				End Site
				{
					OFFSET -1.725766 19.823910 0.000000
				}
			}
		}
	}
	JOINT Spine
	{
		OFFSET 0.000000 13.368103 0.470500
		CHANNELS 3 Xrotation Yrotation Zrotation
		JOINT Spine1
		{
			OFFSET 0.147000 13.837402 0.538800
			CHANNELS 3 Xrotation Yrotation Zrotation
			JOINT Spine2
			{
				OFFSET 0.168000 16.242897 -1.435500
				CHANNELS 3 Xrotation Yrotation Zrotation
				JOINT Neck
				{
					OFFSET 0.217200 18.631500 -1.679100
					CHANNELS 3 Xrotation Yrotation Zrotation
					JOINT Head
					{
						OFFSET 0.000000 6.599396 1.385900
						CHANNELS 3 Xrotation Yrotation Zrotation
						JOINT Hat
						{
							OFFSET -0.532200 27.220596 -10.096100
							CHANNELS 3 Xrotation Yrotation Zrotation
							End Site
							{
								OFFSET 0.000000 22.029861 0.000000
							}
						}
						JOINT HairD
						{
							OFFSET -10.777400 17.437393 -1.325900
							CHANNELS 3 Xrotation Yrotation Zrotation
							JOINT HairD1
							{
								OFFSET -3.290299 -11.051193 1.062200
								CHANNELS 3 Xrotation Yrotation Zrotation
								End Site
								{
									OFFSET 0.000000 11.579437 0.000000
								}
							}
						}
						JOINT HairB
						{
							OFFSET -10.777400 17.437393 1.467900
							CHANNELS 3 Xrotation Yrotation Zrotation
							JOINT HairB1
							{
								OFFSET -1.561200 -12.956299 3.590200
								CHANNELS 3 Xrotation Yrotation Zrotation
								End Site
								{
									OFFSET 0.000000 13.534866 0.000000
								}
							}
						}
						JOINT HairA
						{
							OFFSET 9.713100 17.437393 1.467900
							CHANNELS 3 Xrotation Yrotation Zrotation
							JOINT HairA1
							{
								OFFSET 1.561200 -12.956299 3.590200
								CHANNELS 3 Xrotation Yrotation Zrotation
								End Site
								{
									OFFSET 0.000000 13.534866 0.000000
								}
							}
						}
						JOINT HairC
						{
							OFFSET 9.713100 17.437393 -1.325900
							CHANNELS 3 Xrotation Yrotation Zrotation
							JOINT HairC1
							{
								OFFSET 3.290300 -11.051193 1.062200
								CHANNELS 3 Xrotation Yrotation Zrotation
								End Site
								{
									OFFSET 0.000000 11.579437 0.000000
								}
							}
						}
					}
				}
				JOINT LeftShoulder
				{
					OFFSET 5.101800 15.108002 -2.763700
					CHANNELS 3 Xrotation Yrotation Zrotation
					JOINT LeftArm
					{
						OFFSET 9.825497 2.506317 -1.597400
						CHANNELS 3 Xrotation Yrotation Zrotation
						JOINT LeftForeArm
						{
							OFFSET 21.966244 0.000000 0.000000
							CHANNELS 3 Xrotation Yrotation Zrotation
							JOINT LeftHand
							{
								OFFSET 33.879036 0.000000 0.000000
								CHANNELS 3 Xrotation Yrotation Zrotation
								JOINT LeftHandThumb1
								{
									OFFSET 6.715286 -2.359680 3.363841
									CHANNELS 3 Xrotation Yrotation Zrotation
									JOINT LeftHandThumb2
									{
										OFFSET 2.507072 -1.447464 1.447461
										CHANNELS 3 Xrotation Yrotation Zrotation
										JOINT LeftHandThumb3
										{
											OFFSET 2.898338 -1.673355 1.673357
											CHANNELS 3 Xrotation Yrotation Zrotation
											End Site
											{
												OFFSET -0.295959 3.727692 -0.131651
											}
										}
									}
								}
								JOINT LeftHandIndex1
								{
									OFFSET 14.190811 -0.254547 3.840278
									CHANNELS 3 Xrotation Yrotation Zrotation
									JOINT LeftHandIndex2
									{
										OFFSET 3.551727 0.000000 -0.000000
										CHANNELS 3 Xrotation Yrotation Zrotation
										JOINT LeftHandIndex3
										{
											OFFSET 2.894196 0.000000 0.000000
											CHANNELS 3 Xrotation Yrotation Zrotation
											End Site
											{
												OFFSET -1.000603 2.690872 0.366626
											}
										}
									}
								}
								JOINT LeftHandMiddle1
								{
									OFFSET 13.776489 0.000000 0.000000
									CHANNELS 3 Xrotation Yrotation Zrotation
									JOINT LeftHandMiddle2
									{
										OFFSET 3.438232 0.000000 0.000000
										CHANNELS 3 Xrotation Yrotation Zrotation
										JOINT LeftHandMiddle3
										{
											OFFSET 3.691551 0.000000 0.000000
											CHANNELS 3 Xrotation Yrotation Zrotation
											End Site
											{
												OFFSET -1.082298 3.499527 0.457670
											}
										}
									}
								}
								JOINT LeftHandRing1
								{
									OFFSET 13.966164 -0.268127 -3.067488
									CHANNELS 3 Xrotation Yrotation Zrotation
									JOINT LeftHandRing2
									{
										OFFSET 3.162567 0.000000 0.000000
										CHANNELS 3 Xrotation Yrotation Zrotation
										JOINT LeftHandRing3
										{
											OFFSET 3.324348 0.000000 0.000000
											CHANNELS 3 Xrotation Yrotation Zrotation
											End Site
											{
												OFFSET -0.861900 3.184998 0.405154
											}
										}
									}
								}
								JOINT LeftHandPinky1
								{
									OFFSET 13.131393 -0.168503 -5.746925
									CHANNELS 3 Xrotation Yrotation Zrotation
									JOINT LeftHandPinky2
									{
										OFFSET 2.849182 0.000000 0.000000
										CHANNELS 3 Xrotation Yrotation Zrotation
										JOINT LeftHandPinky3
										{
											OFFSET 2.805038 0.000000 0.000000
											CHANNELS 3 Xrotation Yrotation Zrotation
											End Site
											{
												OFFSET -0.882500 2.642609 0.325652
											}
										}
									}
								}
							}
							JOINT Left_Sleeve
							{
								OFFSET 6.592125 -0.646545 0.805568
								CHANNELS 3 Xrotation Yrotation Zrotation
								End Site
								{
									OFFSET -0.000179 20.275787 -0.000000
								}
							}
						}
					}
				}
				JOINT RightShoulder
				{
					OFFSET -5.731700 15.108002 -2.763700
					CHANNELS 3 Xrotation Yrotation Zrotation
					JOINT RightArm
					{
						OFFSET -9.825497 2.506317 -1.597400
						CHANNELS 3 Xrotation Yrotation Zrotation
						JOINT RightForeArm
						{
							OFFSET -21.966242 0.000000 0.000000
							CHANNELS 3 Xrotation Yrotation Zrotation
							JOINT RightHand
							{
								OFFSET -33.879032 0.000000 0.000000
								CHANNELS 3 Xrotation Yrotation Zrotation
								JOINT RightHandThumb1
								{
									OFFSET -6.715286 -2.359680 3.363841
									CHANNELS 3 Xrotation Yrotation Zrotation
									JOINT RightHandThumb2
									{
										OFFSET -2.507072 -1.447464 1.447461
										CHANNELS 3 Xrotation Yrotation Zrotation
										JOINT RightHandThumb3
										{
											OFFSET -2.898338 -1.673355 1.673357
											CHANNELS 3 Xrotation Yrotation Zrotation
											End Site
											{
												OFFSET 0.295959 3.727692 -0.131651
											}
										}
									}
								}
								JOINT RightHandIndex1
								{
									OFFSET -14.190811 -0.254547 3.840278
									CHANNELS 3 Xrotation Yrotation Zrotation
									JOINT RightHandIndex2
									{
										OFFSET -3.551727 0.000000 -0.000000
										CHANNELS 3 Xrotation Yrotation Zrotation
										JOINT RightHandIndex3
										{
											OFFSET -2.894196 0.000000 0.000000
											CHANNELS 3 Xrotation Yrotation Zrotation
											End Site
											{
												OFFSET 1.000603 2.690872 0.366626
											}
										}
									}
								}
								JOINT RightHandMiddle1
								{
									OFFSET -13.776489 0.000000 0.000000
									CHANNELS 3 Xrotation Yrotation Zrotation
									JOINT RightHandMiddle2
									{
										OFFSET -3.438232 0.000000 0.000000
										CHANNELS 3 Xrotation Yrotation Zrotation
										JOINT RightHandMiddle3
										{
											OFFSET -3.691551 0.000000 0.000000
											CHANNELS 3 Xrotation Yrotation Zrotation
											End Site
											{
												OFFSET 1.082298 3.499527 0.457670
											}
										}
									}
								}
								JOINT RightHandRing1
								{
									OFFSET -13.966164 -0.268127 -3.067488
									CHANNELS 3 Xrotation Yrotation Zrotation
									JOINT RightHandRing2
									{
										OFFSET -3.162567 0.000000 0.000000
										CHANNELS 3 Xrotation Yrotation Zrotation
										JOINT RightHandRing3
										{
											OFFSET -3.324348 0.000000 0.000000
											CHANNELS 3 Xrotation Yrotation Zrotation
											End Site
											{
												OFFSET 0.861900 3.184998 0.405154
											}
										}
									}
								}
								JOINT RightHandPinky1
								{
									OFFSET -13.131393 -0.168503 -5.746925
									CHANNELS 3 Xrotation Yrotation Zrotation
									JOINT RightHandPinky2
									{
										OFFSET -2.849182 0.000000 0.000000
										CHANNELS 3 Xrotation Yrotation Zrotation
										JOINT RightHandPinky3
										{
											OFFSET -2.805038 0.000000 0.000000
											CHANNELS 3 Xrotation Yrotation Zrotation
											End Site
											{
												OFFSET 0.882500 2.642609 0.325652
											}
										}
									}
								}
							}
							JOINT Right_Sleeve
							{
								OFFSET -6.592125 -0.646545 0.805568
								CHANNELS 3 Xrotation Yrotation Zrotation
								End Site
								{
									OFFSET 0.000179 20.275787 -0.000000
								}
							}
						}
					}
				}
				JOINT Bind_Right_JacketString
				{
					OFFSET -3.534800 11.969597 7.200700
					CHANNELS 3 Xrotation Yrotation Zrotation
					JOINT Bind_Right_JacketString1
					{
						OFFSET -0.319900 -6.102600 2.794100
						CHANNELS 3 Xrotation Yrotation Zrotation
						End Site
						{
							OFFSET 0.000000 6.719452 0.000000
						}
					}
				}
				JOINT Bind_Left_JacketString
				{
					OFFSET 2.904800 11.969597 7.200700
					CHANNELS 3 Xrotation Yrotation Zrotation
					JOINT Bind_Left_JacketString1
					{
						OFFSET 0.364800 -5.904503 3.186800
						CHANNELS 3 Xrotation Yrotation Zrotation
						End Site
						{
							OFFSET 0.000000 6.719513 0.000000
						}
					}
				}
				JOINT HairE
				{
					OFFSET 5.915200 17.612701 -11.592200
					CHANNELS 3 Xrotation Yrotation Zrotation
					JOINT HairE1
					{
						OFFSET 0.289200 -7.171898 -1.284500
						CHANNELS 3 Xrotation Yrotation Zrotation
						End Site
						{
							OFFSET 0.000000 7.291756 0.000000
						}
					}
				}
				JOINT HairF
				{
					OFFSET -0.864800 17.612701 -11.592200
					CHANNELS 3 Xrotation Yrotation Zrotation
					JOINT HairF1
					{
						OFFSET 0.000000 -14.087097 -2.127501
						CHANNELS 3 Xrotation Yrotation Zrotation
						End Site
						{
							OFFSET 0.000000 14.246841 0.000000
						}
					}
				}
				JOINT HairG
				{
					OFFSET -8.087700 17.612701 -11.592200
					CHANNELS 3 Xrotation Yrotation Zrotation
					JOINT HairG1
					{
						OFFSET -0.293600 -6.081398 -0.910100
						CHANNELS 3 Xrotation Yrotation Zrotation
						End Site
						{
							OFFSET 0.000000 6.156120 0.000000
						}
					}
				}
			}
		}
	}
	JOINT Pouch
	{
		OFFSET 0.000000 4.394501 10.847300
		CHANNELS 3 Xrotation Yrotation Zrotation
		End Site
		{
			OFFSET 0.000000 21.880577 0.000000
		}
	}
	JOINT Bag
	{
		OFFSET -13.229000 4.813004 -0.593300
		CHANNELS 3 Xrotation Yrotation Zrotation
		End Site
		{
			OFFSET 0.000000 21.880577 0.000000
		}
	}
	JOINT OccupyGuyFacialAnim_Joint
	{
		OFFSET 1.000000 -70.206398 -1.655000
		CHANNELS 3 Xrotation Yrotation Zrotation
		End Site
		{
			OFFSET 0.000000 21.880577 0.000000
		}
	}
}
MOTION
Frames: 4
Frame Time: 0.033333
-0.530270 60.343124 -70.442909 -154.272950 -145.852324 -162.313394 0.000002 0.000000 0.000000 -64.539332 -1.613341 9.237584 54.671214 -13.414500 2.561096 -12.422361 1.194299 -9.098466 -0.000000 -0.000001 0.000000 0.000001 -0.000002 -0.000002 -41.494946 -1.192642 -14.095036 65.105192 -20.485568 2.153964 -35.053176 -8.067559 21.483129 0.000000 -0.000000 0.000000 -0.000002 0.000004 0.000001 4.698486 0.305766 -2.003424 9.406048 0.518897 -4.008193 9.406063 0.518880 -4.008179 -11.077699 19.908234 5.707254 -15.603962 19.670134 -5.878101 0.000000 0.000000 0.000000 0.000000 0.000000 0.000000 0.000000 0.000000 0.000001 0.000000 0.000000 0.000000 0.000000 0.000000 0.000000 0.000000 0.000000 0.000000 0.000000 0.000000 0.000000 0.000000 0.000000 0.000000 0.000000 0.000000 0.000000 0.234474 -6.541170 -30.682009 -23.155668 -21.977279 -36.958727 56.859805 -74.523491 37.835157 20.561371 -0.825586 11.685509 13.610532 1.823296 -5.817345 -0.326016 0.027627 0.803073 -0.000004 -0.000001 0.000002 -11.479731 5.812872 1.287100 0.190188 1.373424 -11.682566 0.000003 0.000001 -0.000002 5.722784 10.514502 -10.361756 -0.318514 -1.174912 -18.209802 0.000002 0.000001 0.000001 6.014878 9.866288 -27.436242 -0.495010 -2.511213 -27.622682 -0.000001 -0.000000 -0.000003 9.701679 8.750193 -31.166983 -0.658399 -5.722157 -36.147899 0.000001 0.000001 0.000001 -0.000000 -0.000002 -0.000002 0.335554 6.380892 21.890217 1.640937 -17.192401 34.841806 58.612080 65.262362 -31.007751 30.748518 10.537063 -2.117079 -4.284794 1.419120 8.817507 4.923900 -12.550468 -2.613710 -0.000001 0.000000 0.000001 -0.412472 0.841754 12.377215 0.296554 1.199771 24.747635 -0.000002 0.000000 -0.000001 -0.291956 -0.768740 20.592566 -1.010204 4.030770 38.424947 0.000004 0.000002 -0.000000 2.392168 -5.121184 29.575190 -1.586067 5.904714 45.315901 0.000003 -0.000006 -0.000001 3.304246 -7.678967 32.082010 -2.146456 9.917350 49.050614 -0.000000 -0.000000 0.000004 0.000001 -0.000000 0.000000 0.000001 0.000001 -0.000000 0.000002 0.000000 -0.000001 0.000001 0.000001 -0.000002 0.000001 0.000001 -0.000002 0.000001 0.000001 -0.000000 0.000002 0.000000 -0.000001 0.000001 0.000001 -0.000002 0.000001 0.000001 -0.000002 0.000001 0.000001 -0.000000 0.000002 0.000000 -0.000001 0.000002 0.000000 0.000000 0.000002 0.000000 0.000000 0.000002 0.000000 0.000000 
-0.377249 60.881653 -71.435196 -156.219185 -147.792426 -163.124424 0.000001 0.000001 0.000001 -62.669888 0.267753 9.031324 49.861668 -15.561558 1.769115 -8.879966 0.780981 -9.302500 0.000000 -0.000001 0.000000 -0.000000 0.000000 -0.000000 -40.578017 -2.833280 -14.848816 63.834525 -20.901238 1.919558 -34.918505 -7.687252 20.478229 -0.000000 0.000001 0.000000 0.000003 -0.000001 0.000000 4.898395 0.336346 -2.218493 9.807983 0.599218 -4.390978 9.807978 0.599222 -4.390974 -11.264747 18.030757 7.391994 -14.976023 20.071083 -7.557725 -0.000001 0.000000 0.000000 -0.000001 0.000000 0.000000 -0.000001 0.000000 0.000001 -0.000001 0.000000 0.000000 -0.000001 0.000000 0.000000 -0.000001 0.000000 0.000000 -0.000001 0.000000 0.000000 -0.000001 0.000000 0.000000 -0.000001 0.000000 0.000000 0.247346 -7.002064 -28.583765 -23.258643 -20.844339 -38.481815 51.341326 -72.464742 33.091597 21.359514 -1.735051 13.064785 13.202529 2.086225 -5.867471 -0.325995 0.027662 0.803091 -0.000001 0.000001 0.000003 -10.470077 4.693911 1.260094 0.195149 1.389051 -11.547115 -0.000002 0.000000 -0.000004 5.359307 10.541188 -10.144729 -0.315756 -1.163878 -18.104844 0.000002 -0.000002 0.000006 5.767407 10.431626 -27.330799 -0.490750 -2.504750 -27.497312 -0.000001 0.000000 -0.000003 9.304518 9.790445 -31.125606 -0.656415 -5.720910 -36.055670 -0.000001 0.000000 -0.000002 0.000000 0.000001 -0.000001 0.362290 6.463928 21.471664 0.000692 -15.066219 37.104992 53.129682 63.633348 -27.652933 30.731938 11.931707 -2.920419 -5.178653 1.609359 8.059254 4.811005 -12.295482 -2.597037 -0.000002 -0.000001 0.000000 -0.320137 0.849369 11.152554 0.396157 1.202319 23.522832 0.000000 0.000000 0.000000 -0.201512 -0.748454 19.370486 -0.921842 4.067182 37.195650 0.000001 -0.000003 -0.000005 2.488681 -5.104996 28.360897 -1.505290 5.954305 44.084408 0.000000 0.000000 0.000002 3.409218 -7.672818 30.873684 -2.075926 9.980172 47.815207 -0.000004 0.000002 -0.000001 0.000001 0.000001 -0.000001 -0.000002 -0.000001 0.000001 -0.000000 0.000001 0.000000 -0.000002 -0.000001 0.000000 -0.000002 -0.000001 0.000000 -0.000002 -0.000001 0.000001 -0.000000 0.000001 0.000000 -0.000002 -0.000001 0.000000 -0.000002 -0.000001 0.000000 -0.000002 -0.000001 0.000001 -0.000000 0.000001 0.000000 0.000001 0.000001 0.000001 0.000001 0.000001 0.000001 0.000001 0.000001 0.000001 
-0.287907 61.486382 -72.078819 -159.088343 -147.971062 -164.256829 -0.000000 -0.000001 -0.000000 -59.335957 2.076540 9.088537 46.322507 -17.271655 1.439526 -6.412841 0.545360 -9.025882 0.000000 -0.000001 -0.000000 -0.000001 0.000000 -0.000001 -38.415815 -4.462231 -15.628926 62.157891 -20.103856 1.381006 -34.150522 -7.326022 19.941017 -0.000000 0.000002 -0.000000 -0.000000 -0.000000 -0.000001 5.312753 0.560895 -2.455253 10.646751 1.025935 -4.862237 10.646735 1.025946 -4.862241 -10.965867 16.217208 7.978459 -15.092092 19.841186 -7.996600 0.000000 -0.000000 -0.000000 0.000000 -0.000000 -0.000000 0.000000 -0.000000 0.000000 0.000000 -0.000000 -0.000000 0.000000 -0.000000 -0.000000 0.000000 -0.000000 -0.000000 0.000000 -0.000000 -0.000000 0.000000 -0.000000 -0.000000 0.000000 -0.000000 -0.000000 0.349392 -6.925365 -27.254133 -22.798473 -19.453019 -39.065004 44.130648 -70.920415 26.677969 20.423707 -2.699733 13.853438 12.710366 2.434253 -5.880209 -0.326006 0.027649 0.803079 -0.000001 -0.000000 0.000001 -9.132379 3.344299 0.519989 0.180436 1.327489 -12.069330 0.000003 -0.000001 -0.000000 4.921254 10.442567 -10.596359 -0.329841 -1.205742 -18.509594 -0.000000 -0.000001 0.000001 5.370951 11.017042 -27.785534 -0.505256 -2.530129 -27.980905 -0.000001 0.000001 -0.000002 8.661488 10.921129 -31.623086 -0.661772 -5.726662 -36.411086 0.000001 0.000000 0.000003 0.000001 -0.000004 -0.000001 0.382572 6.754411 20.647486 -1.850285 -13.033403 39.016629 48.230046 62.043205 -24.894156 30.601662 12.956964 -2.935138 -6.060378 1.772102 7.307462 4.715993 -12.080973 -2.582615 0.000002 -0.000001 0.000002 -0.245959 0.834311 9.947939 0.482151 1.179006 22.318434 0.000002 0.000001 0.000000 -0.125804 -0.753181 18.167951 -0.840253 4.075193 35.986686 0.000004 -0.000001 0.000001 2.573945 -5.115762 27.165600 -1.427706 5.974946 42.873084 -0.000001 0.000000 -0.000005 3.503655 -7.693989 29.684214 -2.007519 10.013446 46.599751 -0.000001 -0.000001 0.000004 0.000001 -0.000000 0.000000 0.000002 0.000001 -0.000000 0.000003 -0.000000 0.000001 0.000002 0.000001 -0.000000 0.000002 0.000001 -0.000000 0.000002 0.000001 -0.000000 0.000003 -0.000000 0.000001 0.000002 0.000001 -0.000000 0.000002 0.000001 -0.000000 0.000002 0.000001 -0.000000 0.000003 -0.000000 0.000001 -0.000000 -0.000001 -0.000000 -0.000000 -0.000001 -0.000000 -0.000000 -0.000001 -0.000000 
-0.255245 62.094078 -72.253448 -161.844652 -146.780287 -165.937274 -0.000000 -0.000001 -0.000000 -55.468243 2.468726 9.745204 43.771175 -17.593971 1.305412 -5.276948 0.589439 -9.822475 0.000000 -0.000001 -0.000000 0.000002 -0.000001 -0.000000 -35.450598 -5.994023 -15.607360 59.827191 -18.675431 0.913484 -33.291961 -6.870547 19.199976 -0.000000 0.000001 0.000000 -0.000000 0.000001 -0.000000 5.603488 0.987610 -2.426858 11.246610 1.853456 -4.869910 11.246611 1.853457 -4.869919 -10.389879 14.271893 7.898830 -14.697903 19.225623 -8.078488 0.000000 -0.000000 -0.000001 0.000000 -0.000000 -0.000001 0.000000 -0.000000 -0.000000 0.000000 -0.000000 -0.000001 0.000000 0.000000 0.000001 0.000000 -0.000000 -0.000001 0.000000 0.000000 0.000001 0.000000 -0.000000 -0.000001 0.000000 -0.000000 -0.000001 0.496156 -6.518622 -26.595688 -21.717654 -17.389841 -38.774595 36.492106 -70.016256 19.976124 18.125451 -2.834758 14.713638 12.160797 2.835765 -5.861207 -0.326017 0.027659 0.803086 -0.000002 -0.000001 0.000001 -7.635261 1.795546 -0.639718 0.155228 1.215162 -13.017219 0.000001 -0.000000 -0.000002 4.433877 10.273606 -11.482929 -0.354979 -1.281698 -19.244155 0.000002 -0.000000 0.000002 4.890914 11.622482 -28.600389 -0.532722 -2.575723 -28.858611 0.000000 0.000003 -0.000000 7.883592 12.122050 -32.457571 -0.670174 -5.737638 -37.056020 -0.000001 0.000002 -0.000000 -0.000001 0.000000 0.000002 0.404251 7.118890 19.665221 -3.424791 -11.498220 40.088969 44.421836 61.244913 -23.738222 29.846646 13.506330 -2.327449 -6.906315 1.889449 6.569570 4.647469 -11.926315 -2.572004 0.000004 -0.000001 0.000000 -0.191607 0.792139 8.676207 0.554684 1.123362 21.047412 -0.000000 0.000000 -0.000001 -0.065819 -0.787621 16.897794 -0.764358 4.049378 34.711018 -0.000002 -0.000001 0.000001 2.648397 -5.159470 25.902371 -1.354059 5.960909 41.594739 0.000001 0.000001 -0.000003 3.587912 -7.749738 28.426665 -1.938828 10.013256 45.316803 -0.000003 0.000001 0.000001 0.000003 -0.000000 -0.000001 -0.000001 0.000000 -0.000001 -0.000003 -0.000000 -0.000000 -0.000001 0.000000 -0.000001 -0.000001 0.000000 -0.000001 -0.000001 0.000000 -0.000001 -0.000003 -0.000000 -0.000000 -0.000001 0.000000 -0.000001 -0.000001 0.000000 -0.000001 -0.000001 0.000000 -0.000001 -0.000003 -0.000000 -0.000000 -0.000000 -0.000001 -0.000000 -0.000000 -0.000001 -0.000000 -0.000000 -0.000001 -0.000000 
